STARTFONT 2.1
COMMENT
COMMENT  Copyright (c) 1999, Thomas A. Fine
COMMENT
COMMENT  License to copy and distribute for both commercial and
COMMENT  non-commercial use is herby granted, provided this notice
COMMENT  is preserved.
COMMENT
COMMENT  Email to my last name at head.cfa.harvard.edu
COMMENT  http://hea-www.harvard.edu/~fine/
COMMENT
COMMENT  Produced with bdfedit, a tcl/tk font editing program
COMMENT  written by Thomas A. Fine
COMMENT
FONT inkblot
SIZE 13 72 72
FONTBOUNDINGBOX 9 13 0 -3
STARTPROPERTIES 10
FOUNDRY "Fine"
FAMILY_NAME ""
WEIGHT_NAME "Medium"
SLANT "R"
SETWIDTH_NAME "Normal"
SPACING "c"
CHARSET_REGISTRY "ISO-8859"
CHARSET_ENCODING "1"
FONT_ASCENT  10
FONT_DESCENT 3
ENDPROPERTIES
CHARS 96
STARTCHAR C040
ENCODING 32
SWIDTH 692 0
DWIDTH 9 0
BBX 9 13 0 -3
BITMAP
0000
0000
0000
0000
0000
0000
0000
0000
0000
0000
0000
0000
0000
ENDCHAR
STARTCHAR C041
ENCODING 33
SWIDTH 692 0
DWIDTH 9 0
BBX 9 13 0 -3
BITMAP
0000
1800
3800
1000
1800
0800
0800
0000
1c00
3c00
1e00
0000
0000
ENDCHAR
STARTCHAR C042
ENCODING 34
SWIDTH 692 0
DWIDTH 9 0
BBX 9 13 0 -3
BITMAP
2600
7700
3200
2000
0000
0000
0000
0000
0000
0000
0000
0000
0000
ENDCHAR
STARTCHAR C043
ENCODING 35
SWIDTH 692 0
DWIDTH 9 0
BBX 9 13 0 -3
BITMAP
1000
1200
3200
3380
fc00
2200
6600
7f80
ff80
4600
6300
4100
2000
ENDCHAR
STARTCHAR C044
ENCODING 36
SWIDTH 692 0
DWIDTH 9 0
BBX 9 13 0 -3
BITMAP
1000
0800
1e00
6800
3400
1c00
0b00
4a00
7e00
7c00
0800
1800
0800
ENDCHAR
STARTCHAR C045
ENCODING 37
SWIDTH 692 0
DWIDTH 9 0
BBX 9 13 0 -3
BITMAP
4000
a000
a300
ec00
4800
1800
3700
7b00
6f00
e600
c000
0000
0000
ENDCHAR
STARTCHAR C046
ENCODING 38
SWIDTH 692 0
DWIDTH 9 0
BBX 9 13 0 -3
BITMAP
1800
2800
2800
7800
3800
1000
3800
6680
6780
7f00
f900
0000
0000
ENDCHAR
STARTCHAR C047
ENCODING 39
SWIDTH 692 0
DWIDTH 9 0
BBX 9 13 0 -3
BITMAP
0000
0c00
1c00
1000
0000
0000
0000
0000
0000
0000
0000
0000
0000
ENDCHAR
STARTCHAR C050
ENCODING 40
SWIDTH 692 0
DWIDTH 9 0
BBX 9 13 0 -3
BITMAP
0800
0c00
1000
1000
1000
3000
3000
3000
3800
0c00
0c00
0000
0000
ENDCHAR
STARTCHAR C051
ENCODING 41
SWIDTH 692 0
DWIDTH 9 0
BBX 9 13 0 -3
BITMAP
0000
3800
0c00
0c00
0400
0400
0400
0c00
1800
3800
2000
0000
0000
ENDCHAR
STARTCHAR C052
ENCODING 42
SWIDTH 692 0
DWIDTH 9 0
BBX 9 13 0 -3
BITMAP
0000
1800
0800
6b00
6f00
1a00
0c00
7b00
5b00
1c00
0800
0000
0000
ENDCHAR
STARTCHAR C053
ENCODING 43
SWIDTH 692 0
DWIDTH 9 0
BBX 9 13 0 -3
BITMAP
0000
0000
0800
1800
0b00
7e00
5800
1800
1c00
0400
0000
0000
0000
ENDCHAR
STARTCHAR C054
ENCODING 44
SWIDTH 692 0
DWIDTH 9 0
BBX 9 13 0 -3
BITMAP
0000
0000
0000
0000
0000
0000
0000
3000
3800
1800
1000
3000
0000
ENDCHAR
STARTCHAR C055
ENCODING 45
SWIDTH 692 0
DWIDTH 9 0
BBX 9 13 0 -3
BITMAP
0000
0000
0000
0000
0b00
7f00
d000
0000
0000
0000
0000
0000
0000
ENDCHAR
STARTCHAR C056
ENCODING 46
SWIDTH 692 0
DWIDTH 9 0
BBX 9 13 0 -3
BITMAP
0000
0000
0000
0000
0000
0000
0000
0400
3c00
1c00
0800
0000
0000
ENDCHAR
STARTCHAR C057
ENCODING 47
SWIDTH 692 0
DWIDTH 9 0
BBX 9 13 0 -3
BITMAP
0000
0300
0600
0400
0600
0800
1c00
3800
7000
6000
2000
0000
0000
ENDCHAR
STARTCHAR C060
ENCODING 48
SWIDTH 692 0
DWIDTH 9 0
BBX 9 13 0 -3
BITMAP
0000
0c00
2e00
3a00
1100
3100
6100
4300
6700
3600
1e00
0000
0000
ENDCHAR
STARTCHAR C061
ENCODING 49
SWIDTH 692 0
DWIDTH 9 0
BBX 9 13 0 -3
BITMAP
0000
1000
3800
5800
1000
1800
0800
0800
1c00
3e00
1800
0000
0000
ENDCHAR
STARTCHAR C062
ENCODING 50
SWIDTH 692 0
DWIDTH 9 0
BBX 9 13 0 -3
BITMAP
1800
3800
7c00
8400
0400
0800
3000
3000
2c00
ff00
e400
0000
0000
ENDCHAR
STARTCHAR C063
ENCODING 51
SWIDTH 692 0
DWIDTH 9 0
BBX 9 13 0 -3
BITMAP
0000
1600
1000
2300
0e00
0400
0400
4200
6600
3e00
0c00
0000
0000
ENDCHAR
STARTCHAR C064
ENCODING 52
SWIDTH 692 0
DWIDTH 9 0
BBX 9 13 0 -3
BITMAP
0000
2800
2800
2000
6700
6f00
f400
0400
0600
0e00
0800
0000
0000
ENDCHAR
STARTCHAR C065
ENCODING 53
SWIDTH 692 0
DWIDTH 9 0
BBX 9 13 0 -3
BITMAP
0600
5e00
7000
2600
7900
7100
0300
0600
3c00
1c00
1000
0000
0000
ENDCHAR
STARTCHAR C066
ENCODING 54
SWIDTH 692 0
DWIDTH 9 0
BBX 9 13 0 -3
BITMAP
0000
0000
0e00
0800
1000
6600
7e00
4e00
6400
7c00
3000
0000
0000
ENDCHAR
STARTCHAR C067
ENCODING 55
SWIDTH 692 0
DWIDTH 9 0
BBX 9 13 0 -3
BITMAP
0000
0400
7e00
7600
6400
0800
1800
1000
3000
4000
4000
0000
0000
ENDCHAR
STARTCHAR C070
ENCODING 56
SWIDTH 692 0
DWIDTH 9 0
BBX 9 13 0 -3
BITMAP
1000
3800
2600
3300
1a00
2f00
6100
6200
7e00
3c00
0000
0000
0000
ENDCHAR
STARTCHAR C071
ENCODING 57
SWIDTH 692 0
DWIDTH 9 0
BBX 9 13 0 -3
BITMAP
0000
3e00
3200
6300
7300
3f00
3400
0600
0400
0e00
1c00
0000
0000
ENDCHAR
STARTCHAR C072
ENCODING 58
SWIDTH 692 0
DWIDTH 9 0
BBX 9 13 0 -3
BITMAP
0000
0000
1c00
0c00
1800
0000
0000
1800
3800
0800
0000
0000
0000
ENDCHAR
STARTCHAR C073
ENCODING 59
SWIDTH 692 0
DWIDTH 9 0
BBX 9 13 0 -3
BITMAP
0000
0000
1800
3800
0000
0000
0000
0800
0800
1800
3000
0000
0000
ENDCHAR
STARTCHAR C074
ENCODING 60
SWIDTH 692 0
DWIDTH 9 0
BBX 9 13 0 -3
BITMAP
0000
0000
0000
0e00
3800
6000
4000
6000
1e00
0e00
0200
0000
0000
ENDCHAR
STARTCHAR C075
ENCODING 61
SWIDTH 692 0
DWIDTH 9 0
BBX 9 13 0 -3
BITMAP
0000
0000
1300
3f00
8800
0000
0200
7e00
3300
0000
0000
0000
0000
ENDCHAR
STARTCHAR C076
ENCODING 62
SWIDTH 692 0
DWIDTH 9 0
BBX 9 13 0 -3
BITMAP
0000
1000
1800
0c00
0f00
0300
0c00
0800
3000
0000
0000
0000
0000
ENDCHAR
STARTCHAR C077
ENCODING 63
SWIDTH 692 0
DWIDTH 9 0
BBX 9 13 0 -3
BITMAP
0400
1c00
6400
4c00
1c00
1800
3000
1000
0000
1800
1c00
0000
0000
ENDCHAR
STARTCHAR C100
ENCODING 64
SWIDTH 692 0
DWIDTH 9 0
BBX 9 13 0 -3
BITMAP
0000
3c00
7600
6000
dd00
5500
9f00
ce00
4000
3400
3c00
0000
0000
ENDCHAR
STARTCHAR C101
ENCODING 65
SWIDTH 692 0
DWIDTH 9 0
BBX 9 13 0 -3
BITMAP
0000
1000
1c00
2600
4200
2e00
3300
6300
6300
e100
6000
0000
0000
ENDCHAR
STARTCHAR C102
ENCODING 66
SWIDTH 692 0
DWIDTH 9 0
BBX 9 13 0 -3
BITMAP
0000
3800
6600
2200
6200
7e00
6600
6300
3300
7f00
3c00
0000
0000
ENDCHAR
STARTCHAR C103
ENCODING 67
SWIDTH 692 0
DWIDTH 9 0
BBX 9 13 0 -3
BITMAP
0000
1c00
1200
3100
6000
6000
6000
e000
7000
3f00
1e00
0000
0000
ENDCHAR
STARTCHAR C104
ENCODING 68
SWIDTH 692 0
DWIDTH 9 0
BBX 9 13 0 -3
BITMAP
0000
2000
5800
6600
6200
6100
2100
3000
3900
7e00
3800
0000
0000
ENDCHAR
STARTCHAR C105
ENCODING 69
SWIDTH 692 0
DWIDTH 9 0
BBX 9 13 0 -3
BITMAP
0000
0000
7b00
3c00
1000
1800
2e00
6000
3000
7f00
3e00
0000
0000
ENDCHAR
STARTCHAR C106
ENCODING 70
SWIDTH 692 0
DWIDTH 9 0
BBX 9 13 0 -3
BITMAP
0000
0e00
3400
4000
2400
3e00
6e00
6000
6000
5000
1000
0000
0000
ENDCHAR
STARTCHAR C107
ENCODING 71
SWIDTH 692 0
DWIDTH 9 0
BBX 9 13 0 -3
BITMAP
0000
0800
1c00
3200
7000
6000
2000
4e00
5700
2e00
0300
0000
0000
ENDCHAR
STARTCHAR C110
ENCODING 72
SWIDTH 692 0
DWIDTH 9 0
BBX 9 13 0 -3
BITMAP
0000
3000
2700
6600
2200
4600
7d00
7100
2100
7300
3300
2000
0000
ENDCHAR
STARTCHAR C111
ENCODING 73
SWIDTH 692 0
DWIDTH 9 0
BBX 9 13 0 -3
BITMAP
0000
0e00
7e00
7200
1000
1000
0000
0800
0800
3c00
7c00
1000
0000
ENDCHAR
STARTCHAR C112
ENCODING 74
SWIDTH 692 0
DWIDTH 9 0
BBX 9 13 0 -3
BITMAP
0100
1f00
0c00
0800
0400
6c00
e400
6400
4c00
5800
0000
0000
0000
ENDCHAR
STARTCHAR C113
ENCODING 75
SWIDTH 692 0
DWIDTH 9 0
BBX 9 13 0 -3
BITMAP
0000
2100
1300
2200
7c00
7800
7800
4800
4400
6700
2200
0000
0000
ENDCHAR
STARTCHAR C114
ENCODING 76
SWIDTH 692 0
DWIDTH 9 0
BBX 9 13 0 -3
BITMAP
0000
4000
4000
2000
6000
6000
6000
2000
5400
fe00
e300
0000
0000
ENDCHAR
STARTCHAR C115
ENCODING 77
SWIDTH 692 0
DWIDTH 9 0
BBX 9 13 0 -3
BITMAP
2000
3000
3200
7700
7d00
d880
c980
d100
c300
e600
0600
0000
0000
ENDCHAR
STARTCHAR C116
ENCODING 78
SWIDTH 692 0
DWIDTH 9 0
BBX 9 13 0 -3
BITMAP
0000
0100
0100
3100
7200
5300
4e00
6400
c600
8700
0600
0000
0000
ENDCHAR
STARTCHAR C117
ENCODING 79
SWIDTH 692 0
DWIDTH 9 0
BBX 9 13 0 -3
BITMAP
0000
1800
2e00
6600
6300
4200
2300
6700
5e00
3e00
1800
0000
0000
ENDCHAR
STARTCHAR C120
ENCODING 80
SWIDTH 692 0
DWIDTH 9 0
BBX 9 13 0 -3
BITMAP
0000
2e00
4700
2300
2e00
1600
1000
1800
3000
6000
2000
0000
0000
ENDCHAR
STARTCHAR C121
ENCODING 81
SWIDTH 692 0
DWIDTH 9 0
BBX 9 13 0 -3
BITMAP
0000
7000
de00
4600
4600
5200
9b00
5e00
5f00
6c00
3c00
0600
0000
ENDCHAR
STARTCHAR C122
ENCODING 82
SWIDTH 692 0
DWIDTH 9 0
BBX 9 13 0 -3
BITMAP
0000
1800
ee00
4200
2600
2800
7c00
6600
6600
4700
2300
0100
0000
ENDCHAR
STARTCHAR C123
ENCODING 83
SWIDTH 692 0
DWIDTH 9 0
BBX 9 13 0 -3
BITMAP
0000
0200
7700
ef00
6200
1000
0f00
6300
7200
1c00
0800
0000
0000
ENDCHAR
STARTCHAR C124
ENCODING 84
SWIDTH 692 0
DWIDTH 9 0
BBX 9 13 0 -3
BITMAP
0000
0000
1d00
fe00
5c00
0c00
0400
0800
0800
1800
1c00
0000
0000
ENDCHAR
STARTCHAR C125
ENCODING 85
SWIDTH 692 0
DWIDTH 9 0
BBX 9 13 0 -3
BITMAP
0000
0000
2000
4200
2200
2600
6300
6300
2f00
3e00
1c00
0000
0000
ENDCHAR
STARTCHAR C126
ENCODING 86
SWIDTH 692 0
DWIDTH 9 0
BBX 9 13 0 -3
BITMAP
0000
0000
4200
2300
2700
2600
1600
2400
2c00
3800
1000
2000
0000
ENDCHAR
STARTCHAR C127
ENCODING 87
SWIDTH 692 0
DWIDTH 9 0
BBX 9 13 0 -3
BITMAP
0000
0000
8180
9900
5c00
7e00
6400
c600
8200
c000
0000
0000
0000
ENDCHAR
STARTCHAR C130
ENCODING 88
SWIDTH 692 0
DWIDTH 9 0
BBX 9 13 0 -3
BITMAP
0000
3200
1600
2a00
1800
1800
1c00
3c00
2200
6100
0200
0000
0000
ENDCHAR
STARTCHAR C131
ENCODING 89
SWIDTH 692 0
DWIDTH 9 0
BBX 9 13 0 -3
BITMAP
0000
7100
6300
3200
2400
1000
1800
1800
1800
1800
3000
0000
0000
ENDCHAR
STARTCHAR C132
ENCODING 90
SWIDTH 692 0
DWIDTH 9 0
BBX 9 13 0 -3
BITMAP
0000
1f80
e300
0700
0400
0c00
1000
c000
f000
4d00
0300
0000
0000
ENDCHAR
STARTCHAR C133
ENCODING 91
SWIDTH 692 0
DWIDTH 9 0
BBX 9 13 0 -3
BITMAP
0600
1c00
2000
2000
1000
3000
3000
3000
3000
3a00
7e00
1000
0000
ENDCHAR
STARTCHAR C134
ENCODING 92
SWIDTH 692 0
DWIDTH 9 0
BBX 9 13 0 -3
BITMAP
0000
6000
7000
3000
3000
1000
0c00
0400
0200
0700
0100
0000
0000
ENDCHAR
STARTCHAR C135
ENCODING 93
SWIDTH 692 0
DWIDTH 9 0
BBX 9 13 0 -3
BITMAP
0400
5c00
0400
0600
0400
0c00
0800
0400
6c00
7c00
1c00
0800
0000
ENDCHAR
STARTCHAR C136
ENCODING 94
SWIDTH 692 0
DWIDTH 9 0
BBX 9 13 0 -3
BITMAP
0800
1c00
3700
7100
6000
0000
0000
0000
0000
0000
0000
0000
0000
ENDCHAR
STARTCHAR C137
ENCODING 95
SWIDTH 692 0
DWIDTH 9 0
BBX 9 13 0 -3
BITMAP
0000
0000
0000
0000
0000
0000
0000
0000
0000
4080
ff00
7900
0000
ENDCHAR
STARTCHAR C140
ENCODING 96
SWIDTH 692 0
DWIDTH 9 0
BBX 9 13 0 -3
BITMAP
2000
3800
1800
0000
0000
0000
0000
0000
0000
0000
0000
0000
0000
ENDCHAR
STARTCHAR C141
ENCODING 97
SWIDTH 692 0
DWIDTH 9 0
BBX 9 13 0 -3
BITMAP
0000
0000
0000
1800
7c00
0400
3e00
5600
6400
3e00
0e00
0000
0000
ENDCHAR
STARTCHAR C142
ENCODING 98
SWIDTH 692 0
DWIDTH 9 0
BBX 9 13 0 -3
BITMAP
0000
4000
2000
2000
6000
6300
7f00
2100
3600
3c00
1800
0000
0000
ENDCHAR
STARTCHAR C143
ENCODING 99
SWIDTH 692 0
DWIDTH 9 0
BBX 9 13 0 -3
BITMAP
0000
0000
0000
1c00
1200
3400
3000
3000
3600
3e00
5000
0000
0000
ENDCHAR
STARTCHAR C144
ENCODING 100
SWIDTH 692 0
DWIDTH 9 0
BBX 9 13 0 -3
BITMAP
0000
1800
0c00
0c00
0400
1c00
2400
4e00
6e00
3c00
1800
0000
0000
ENDCHAR
STARTCHAR C145
ENCODING 101
SWIDTH 692 0
DWIDTH 9 0
BBX 9 13 0 -3
BITMAP
0000
0000
0000
0e00
1200
4e00
7f00
4c00
6000
3c00
1e00
0400
0000
ENDCHAR
STARTCHAR C146
ENCODING 102
SWIDTH 692 0
DWIDTH 9 0
BBX 9 13 0 -3
BITMAP
0800
0800
1e00
1800
1000
1600
7c00
b000
1000
1800
1800
0000
0000
ENDCHAR
STARTCHAR C147
ENCODING 103
SWIDTH 692 0
DWIDTH 9 0
BBX 9 13 0 -3
BITMAP
0000
0000
0000
1e00
3700
2100
3200
3600
1e00
0600
6e00
3c00
0c00
ENDCHAR
STARTCHAR C150
ENCODING 104
SWIDTH 692 0
DWIDTH 9 0
BBX 9 13 0 -3
BITMAP
0000
0000
c000
6000
4000
6c00
3e00
3200
3200
1300
3000
2000
0000
ENDCHAR
STARTCHAR C151
ENCODING 105
SWIDTH 692 0
DWIDTH 9 0
BBX 9 13 0 -3
BITMAP
0000
0c00
1c00
0000
0000
1000
0800
0800
1800
3800
1c00
0000
0000
ENDCHAR
STARTCHAR C152
ENCODING 106
SWIDTH 692 0
DWIDTH 9 0
BBX 9 13 0 -3
BITMAP
0000
0400
0c00
0000
0000
0400
0c00
0800
0600
0400
4c00
3c00
3800
ENDCHAR
STARTCHAR C153
ENCODING 107
SWIDTH 692 0
DWIDTH 9 0
BBX 9 13 0 -3
BITMAP
0000
8000
8000
c000
4c00
5000
6000
6000
7c00
ec00
6200
0000
0000
ENDCHAR
STARTCHAR C154
ENCODING 108
SWIDTH 692 0
DWIDTH 9 0
BBX 9 13 0 -3
BITMAP
0000
0800
0800
0800
1000
1000
3000
3000
3000
3800
1800
0000
0000
ENDCHAR
STARTCHAR C155
ENCODING 109
SWIDTH 692 0
DWIDTH 9 0
BBX 9 13 0 -3
BITMAP
0000
0000
0000
0000
2000
3600
3b00
7900
4900
cb00
4200
0000
0000
ENDCHAR
STARTCHAR C156
ENCODING 110
SWIDTH 692 0
DWIDTH 9 0
BBX 9 13 0 -3
BITMAP
0000
0000
0000
0800
1e00
1600
3600
2200
6200
7200
0300
0000
0000
ENDCHAR
STARTCHAR C157
ENCODING 111
SWIDTH 692 0
DWIDTH 9 0
BBX 9 13 0 -3
BITMAP
0000
0000
0000
1000
0800
1400
2400
2e00
3e00
3e00
1800
0000
0000
ENDCHAR
STARTCHAR C160
ENCODING 112
SWIDTH 692 0
DWIDTH 9 0
BBX 9 13 0 -3
BITMAP
0000
0000
0000
0000
0000
7e00
7200
3200
2400
3800
2000
3000
3000
ENDCHAR
STARTCHAR C161
ENCODING 113
SWIDTH 692 0
DWIDTH 9 0
BBX 9 13 0 -3
BITMAP
0000
0000
0000
0000
3000
5000
5800
8c00
6c00
3c00
0900
0f00
0600
ENDCHAR
STARTCHAR C162
ENCODING 114
SWIDTH 692 0
DWIDTH 9 0
BBX 9 13 0 -3
BITMAP
0000
0000
0000
0800
1c00
6e00
2400
2000
1000
1000
0000
0000
0000
ENDCHAR
STARTCHAR C163
ENCODING 115
SWIDTH 692 0
DWIDTH 9 0
BBX 9 13 0 -3
BITMAP
0000
0000
0000
0000
1600
1500
0800
0c00
2c00
3e00
1c00
0000
0000
ENDCHAR
STARTCHAR C164
ENCODING 116
SWIDTH 692 0
DWIDTH 9 0
BBX 9 13 0 -3
BITMAP
0000
1000
0800
0e00
5c00
2000
0800
0800
1800
3800
1000
0000
0000
ENDCHAR
STARTCHAR C165
ENCODING 117
SWIDTH 692 0
DWIDTH 9 0
BBX 9 13 0 -3
BITMAP
0000
0000
0000
0000
0000
1100
3300
2200
1200
7e00
3800
0000
0000
ENDCHAR
STARTCHAR C166
ENCODING 118
SWIDTH 692 0
DWIDTH 9 0
BBX 9 13 0 -3
BITMAP
0000
0000
0000
0000
0200
6600
6600
2800
2000
2800
1000
0000
0000
ENDCHAR
STARTCHAR C167
ENCODING 119
SWIDTH 692 0
DWIDTH 9 0
BBX 9 13 0 -3
BITMAP
0000
0000
0000
0000
c000
9300
3700
ba00
7e00
2600
0000
0000
0000
ENDCHAR
STARTCHAR C170
ENCODING 120
SWIDTH 692 0
DWIDTH 9 0
BBX 9 13 0 -3
BITMAP
0000
0000
0000
0200
2300
3a00
1c00
1800
3400
4400
0200
0000
0000
ENDCHAR
STARTCHAR C171
ENCODING 121
SWIDTH 692 0
DWIDTH 9 0
BBX 9 13 0 -3
BITMAP
0000
0000
0000
0000
4100
7300
3200
3a00
1c00
0400
1800
3800
3800
ENDCHAR
STARTCHAR C172
ENCODING 122
SWIDTH 692 0
DWIDTH 9 0
BBX 9 13 0 -3
BITMAP
0000
0000
0000
0000
6000
0800
0e00
3000
6000
7800
7600
1000
0000
ENDCHAR
STARTCHAR C173
ENCODING 123
SWIDTH 692 0
DWIDTH 9 0
BBX 9 13 0 -3
BITMAP
0e00
1c00
1000
0800
1800
7000
3000
1000
1a00
3e00
0e00
0000
0000
ENDCHAR
STARTCHAR C174
ENCODING 124
SWIDTH 692 0
DWIDTH 9 0
BBX 9 13 0 -3
BITMAP
1000
1000
0800
0800
1800
1800
0800
0c00
0c00
1800
1c00
1c00
1800
ENDCHAR
STARTCHAR C175
ENCODING 125
SWIDTH 692 0
DWIDTH 9 0
BBX 9 13 0 -3
BITMAP
1800
2c00
0e00
0400
0600
0f00
0c00
0400
0c00
5c00
7800
2000
0000
ENDCHAR
STARTCHAR C176
ENCODING 126
SWIDTH 692 0
DWIDTH 9 0
BBX 9 13 0 -3
BITMAP
0000
0000
1900
7b00
e600
6000
0000
0000
0000
0000
0000
0000
0000
ENDCHAR
STARTCHAR C177
ENCODING 127
SWIDTH 692 0
DWIDTH 9 0
BBX 9 13 0 -3
BITMAP
0000
0000
0000
0000
0000
0000
0000
0000
0000
0000
0000
0000
0000
ENDCHAR
ENDFONT
